HIERARCHY
ROOT hip
{
  OFFSET 0 0 0
  CHANNELS 6 Xposition Yposition Zposition Zrotation Yrotation Xrotation
  JOINT abdomen
  {
    OFFSET 0 20.6881 -0.73152
    CHANNELS 3 Zrotation Xrotation Yrotation
    JOINT chest
    {
      OFFSET 0 11.7043 -0.48768
      CHANNELS 3 Zrotation Xrotation Yrotation
      JOINT neck
      {
        OFFSET 0 22.1894 -2.19456
        CHANNELS 3 Zrotation Xrotation Yrotation
        JOINT head
        {
          OFFSET -0.24384 7.07133 1.2192
          CHANNELS 3 Zrotation Xrotation Yrotation
          JOINT leftEye
          {
            OFFSET 4.14528 8.04674 8.04672
            CHANNELS 3 Zrotation Xrotation Yrotation
            End Site
            {
              OFFSET 1 0 0
            }
          }
          JOINT rightEye
          {
            OFFSET -3.6576 8.04674 8.04672
            CHANNELS 3 Zrotation Xrotation Yrotation
            End Site
            {
              OFFSET 1 0 0
            }
          }
        }
      }
      JOINT rCollar
      {
        OFFSET -2.68224 19.2634 -4.8768
        CHANNELS 3 Zrotation Xrotation Yrotation
        JOINT rShldr
        {
          OFFSET -8.77824 -1.95073 1.46304
          CHANNELS 3 Zrotation Xrotation Yrotation
          JOINT rForeArm
          {
            OFFSET -28.1742 -1.7115 0.48768
            CHANNELS 3 Zrotation Xrotation Yrotation
            JOINT rHand
            {
              OFFSET -22.5879 0.773209 7.07136
              CHANNELS 3 Zrotation Xrotation Yrotation
              JOINT rThumb1
              {
                OFFSET -1.2192 -0.487915 3.41376
                CHANNELS 3 Zrotation Xrotation Yrotation
                JOINT rThumb2
                {
                  OFFSET -3.37035 -0.52449 3.41376
                  CHANNELS 3 Zrotation Xrotation Yrotation
                  End Site
                  {
                    OFFSET -1.78271 -1.18214 1.43049
                  }
                }
              }
              JOINT rIndex1
              {
                OFFSET -7.75947 0.938293 5.60832
                CHANNELS 3 Zrotation Xrotation Yrotation
                JOINT rIndex2
                {
                  OFFSET -2.54057 -0.884171 1.56538
                  CHANNELS 3 Zrotation Xrotation Yrotation
                  End Site
                  {
                    OFFSET -1.62519 -0.234802 1.16502
                  }
                }
              }
              JOINT rMid1
              {
                OFFSET -8.24714 1.18213 3.41376
                CHANNELS 3 Zrotation Xrotation Yrotation
                JOINT rMid2
                {
                  OFFSET -3.10165 -0.590103 1.0647
                  CHANNELS 3 Zrotation Xrotation Yrotation
                  End Site
                  {
                    OFFSET -2.48547 -0.328903 0.83742
                  }
                }
              }
              JOINT rRing1
              {
                OFFSET -8.82822 0.546677 1.51678
                CHANNELS 3 Zrotation Xrotation Yrotation
                JOINT rRing2
                {
                  OFFSET -2.60934 -0.819778 -0.0198488
                  CHANNELS 3 Zrotation Xrotation Yrotation
                  End Site
                  {
                    OFFSET -2.33842 -0.294052 0.168128
                  }
                }
              }
              JOINT rPinky1
              {
                OFFSET -8.27202 -0.0477905 -0.4584
                CHANNELS 3 Zrotation Xrotation Yrotation
                JOINT rPinky2
                {
                  OFFSET -1.82734 -0.647385 -0.700984
                  CHANNELS 3 Zrotation Xrotation Yrotation
                  End Site
                  {
                    OFFSET -1.69225 -0.51767 -0.607171
                  }
                }
              }
            }
          }
        }
      }
      JOINT lCollar
      {
        OFFSET 2.68224 19.2634 -4.8768
        CHANNELS 3 Zrotation Xrotation Yrotation
        JOINT lShldr
        {
          OFFSET 8.77824 -1.95073 1.46304
          CHANNELS 3 Zrotation Xrotation Yrotation
          JOINT lForeArm
          {
            OFFSET 28.1742 -1.7115 0.48768
            CHANNELS 3 Zrotation Xrotation Yrotation
            JOINT lHand
            {
              OFFSET 22.5879 0.773209 7.07136
              CHANNELS 3 Zrotation Xrotation Yrotation
              JOINT lThumb1
              {
                OFFSET 1.2192 -0.487915 3.41376
                CHANNELS 3 Zrotation Xrotation Yrotation
                JOINT lThumb2
                {
                  OFFSET 3.37035 -0.52449 3.41376
                  CHANNELS 3 Zrotation Xrotation Yrotation
                  End Site
                  {
                    OFFSET 1.78271 -1.18214 1.43049
                  }
                }
              }
              JOINT lIndex1
              {
                OFFSET 7.75947 0.938293 5.60832
                CHANNELS 3 Zrotation Xrotation Yrotation
                JOINT lIndex2
                {
                  OFFSET 2.54057 -0.884171 1.56538
                  CHANNELS 3 Zrotation Xrotation Yrotation
                  End Site
                  {
                    OFFSET 1.62519 -0.234802 1.16502
                  }
                }
              }
              JOINT lMid1
              {
                OFFSET 8.24714 1.18213 3.41376
                CHANNELS 3 Zrotation Xrotation Yrotation
                JOINT lMid2
                {
                  OFFSET 3.10165 -0.590103 1.0647
                  CHANNELS 3 Zrotation Xrotation Yrotation
                  End Site
                  {
                    OFFSET 2.48547 -0.328903 0.83742
                  }
                }
              }
              JOINT lRing1
              {
                OFFSET 8.82822 0.546677 1.51678
                CHANNELS 3 Zrotation Xrotation Yrotation
                JOINT lRing2
                {
                  OFFSET 2.60934 -0.819778 -0.0198488
                  CHANNELS 3 Zrotation Xrotation Yrotation
                  End Site
                  {
                    OFFSET 2.33842 -0.294052 0.168128
                  }
                }
              }
              JOINT lPinky1
              {
                OFFSET 8.27202 -0.0477905 -0.4584
                CHANNELS 3 Zrotation Xrotation Yrotation
                JOINT lPinky2
                {
                  OFFSET 1.82734 -0.647385 -0.700984
                  CHANNELS 3 Zrotation Xrotation Yrotation
                  End Site
                  {
                    OFFSET 1.69225 -0.51767 -0.607171
                  }
                }
              }
            }
          }
        }
      }
    }
  }
  JOINT rButtock
  {
    OFFSET -8.77824 4.35084 1.2192
    CHANNELS 3 Zrotation Xrotation Yrotation
    JOINT rThigh
    {
      OFFSET 0 -1.70687 -2.19456
      CHANNELS 3 Zrotation Xrotation Yrotation
      JOINT rShin
      {
        OFFSET 0 -36.8199 0.73152
        CHANNELS 3 Zrotation Xrotation Yrotation
        JOINT rFoot
        {
          OFFSET 0.73152 -45.1104 -5.12064
          CHANNELS 3 Zrotation Xrotation Yrotation
          End Site
          {
            OFFSET -1.1221 -3.69964 12.103
          }
        }
      }
    }
  }
  JOINT lButtock
  {
    OFFSET 8.77824 4.35084 1.2192
    CHANNELS 3 Zrotation Xrotation Yrotation
    JOINT lThigh
    {
      OFFSET 0 -1.70687 -2.19456
      CHANNELS 3 Zrotation Xrotation Yrotation
      JOINT lShin
      {
        OFFSET 0 -36.8199 0.73152
        CHANNELS 3 Zrotation Xrotation Yrotation
        JOINT lFoot
        {
          OFFSET -0.73152 -45.1104 -5.12064
          CHANNELS 3 Zrotation Xrotation Yrotation
          End Site
          {
            OFFSET 1.1221 -3.69964 12.103
          }
        }
      }
    }
  }
}
MOTION
Frames:	5
Frame Time:	0.00833333
-3.73644 84.2564 38.9673 0.0 0.0 0.0 -1.24151 -0.00398118 -0.0340789 -0.342495 -0.00249261 -0.0593273 2.4847e-14 -7.95139e-16 -1.73936e-16 7.4653e-14 3.18055e-15 -6.24308e-16 -0.0 0.0 0.0 -0.0 0.0 0.0 1.24234e-14 5.00844e-17 4.96962e-17 2.62418e-13 1.57164e-15 -3.97569e-16 4.48135e-12 -1.30542e-12 -9.22361e-14 5.13153e-11 1.52498e-12 -2.98972e-13 1.21045e-10 4.65623e-13 -8.6193e-13 2.09038e-10 8.0468e-13 -1.50281e-12 1.21051e-10 4.69927e-13 -8.74653e-13 7.73091 5.47488 0.417314 1.21045e-10 4.66349e-13 -8.65111e-13 2.90554 0.965183 0.102902 1.21056e-10 4.6615e-13 -8.62725e-13 10.2786 0.731801 0.0259123 1.21045e-10 4.63566e-13 -8.52389e-13 2.22167 -0.733487 -0.20892 1.24255e-14 5.00844e-17 -2.48481e-16 2.57751e-13 1.1865e-15 -2.18663e-15 4.48553e-12 1.374e-12 -6.99722e-14 5.13299e-11 -1.16314e-12 -3.14875e-13 1.21083e-10 4.53778e-13 -8.68291e-13 2.09115e-10 7.79236e-13 -1.49963e-12 1.21079e-10 4.52434e-13 -8.6193e-13 -7.73091 5.47488 -0.417314 1.21083e-10 4.53428e-13 -8.74653e-13 -2.90554 0.965183 -0.102902 1.21076e-10 4.54124e-13 -8.65906e-13 -10.2786 0.731801 -0.0259123 1.21088e-10 4.5641e-13 -8.71472e-13 -2.22167 -0.733487 0.20892 -2.03217e-16 0.0 -3.88251e-19 -0.453793 -1.92099 -0.0095279 -0.00915595 -2.07857 -0.0755552 -0.487502 3.99699 0.13666 2.03217e-16 0.0 3.88251e-19 -1.43723 -5.97116 0.12966 -0.00126451 5.25796 -0.0454164 0.507777 0.71074 -0.0722694
-5.52695 84.1757 38.2034 -6.4815 -4.3852 -0.331 0.664562 0.256653 0.487636 -0.602864 -1.66018 0.0895369 0.30003 2.18446 -0.112437 0.00798018 -0.312065 -0.269428 -0.0 0.0 0.0 -0.0 0.0 0.0 -7.06411e-14 -6.31753e-15 3.28263e-14 24.0908 3.22395 -5.54626 -6.94291 -3.98697 9.78865 0.0846514 6.46151 0.887384 3.23144e-10 -3.86963e-10 5.31225e-10 5.67866e-10 -6.76191e-10 9.12697e-10 3.2315e-10 -3.86961e-10 5.31215e-10 7.73091 5.47488 0.417314 3.23143e-10 -3.86964e-10 5.31222e-10 2.90554 0.965183 0.102902 3.23155e-10 -3.86964e-10 5.31222e-10 10.2786 0.731801 0.0259123 3.23143e-10 -3.86966e-10 5.31231e-10 2.22167 -0.733487 -0.20892 -7.06249e-14 -6.31933e-15 3.25689e-14 -23.054 7.61567 2.79967 5.61044 -2.90496 -8.34219 -0.013081 2.53744 -0.355352 6.30151e-10 8.51591e-10 4.05665e-10 1.0915e-09 1.4715e-09 6.96281e-10 6.30146e-10 8.51587e-10 4.05672e-10 -7.73091 5.47488 -0.417314 6.3015e-10 8.51589e-10 4.05662e-10 -2.90554 0.965183 -0.102902 6.30142e-10 8.51589e-10 4.05668e-10 -10.2786 0.731801 -0.0259123 6.30156e-10 8.51592e-10 4.05662e-10 -2.22167 -0.733487 0.20892 -2.03217e-16 0.0 -3.88251e-19 -0.456965 0.404139 0.370705 -0.00569007 -1.5109 -0.0518869 -0.49682 -0.271667 -2.20628 2.03217e-16 0.0 3.88251e-19 2.49958 -6.1385 -0.858615 -0.0130157 10.6004 -0.180447 0.863011 -4.91913 3.29858
-5.51539 84.1744 38.2251 -6.4462 -4.3397 -0.3153 2.6721 0.534229 1.03833 -0.867004 -3.41244 0.247159 0.626028 4.493 -0.232446 0.0118437 -0.642835 -0.555423 -0.0 0.0 0.0 -0.0 0.0 0.0 -1.60689e-13 -1.33444e-14 7.04909e-14 50.2316 6.53366 -11.4619 -12.8195 -7.81239 20.2831 -0.048901 13.2859 1.86363 5.28915e-10 -7.87228e-10 1.1043e-09 9.33772e-10 -1.37605e-09 1.89759e-09 5.28921e-10 -7.87227e-10 1.10429e-09 7.73091 5.47488 0.417314 5.28913e-10 -7.87231e-10 1.1043e-09 2.90554 0.965183 0.102902 5.28927e-10 -7.8723e-10 1.1043e-09 10.2786 0.731801 0.0259123 5.28914e-10 -7.87231e-10 1.1043e-09 2.22167 -0.733487 -0.20892 -1.60657e-13 -1.3348e-14 7.02766e-14 -48.2592 15.6083 5.92168 10.6315 -5.77057 -17.2289 0.00744151 5.21882 -0.733231 1.17792e-09 1.76389e-09 8.39964e-10 2.04093e-09 3.04787e-09 1.44165e-09 1.17792e-09 1.76389e-09 8.39972e-10 -7.73091 5.47488 -0.417314 1.17792e-09 1.76389e-09 8.39965e-10 -2.90554 0.965183 -0.102902 1.17791e-09 1.76389e-09 8.39967e-10 -10.2786 0.731801 -0.0259123 1.17793e-09 1.76389e-09 8.39962e-10 -2.22167 -0.733487 0.20892 -2.03217e-16 0.0 -3.88251e-19 -0.496019 2.86156 0.772815 -0.00253635 -0.910749 -0.0268873 -0.8866 -4.76896 -4.69846 2.03217e-16 0.0 3.88251e-19 6.6532 -6.31398 -1.90369 0.00326136 16.2475 -0.330236 1.96853 -10.8076 6.96117
-5.50222 84.1732 38.2519 -6.4078 -4.2878 -0.2983 4.46248 0.777672 1.53119 -1.09769 -4.97546 0.388617 0.925955 6.55328 -0.339283 0.0151351 -0.936112 -0.808379 -0.0 0.0 0.0 -0.0 0.0 0.0 -2.3677e-13 -1.90527e-14 9.83794e-14 74.1366 9.30797 -16.8406 -16.8836 -10.5657 29.8501 -0.376876 19.3654 2.804 7.27342e-10 -1.16182e-09 1.5954e-09 1.28552e-09 -2.03018e-09 2.7411e-09 7.27347e-10 -1.16182e-09 1.59539e-09 7.73091 5.47488 0.417314 7.27339e-10 -1.16183e-09 1.5954e-09 2.90554 0.965183 0.102902 7.27354e-10 -1.16182e-09 1.59539e-09 10.2786 0.731801 0.0259123 7.2734e-10 -1.16182e-09 1.5954e-09 2.22167 -0.733487 -0.20892 -2.36726e-13 -1.90582e-14 9.82035e-14 -71.5435 22.6195 9.02415 14.3629 -7.97739 -25.2555 0.05589 7.61115 -1.07448 1.64829e-09 2.55386e-09 1.21873e-09 2.85626e-09 4.41294e-09 2.09184e-09 1.64828e-09 2.55386e-09 1.21874e-09 -7.73091 5.47488 -0.417314 1.64828e-09 2.55386e-09 1.21874e-09 -2.90554 0.965183 -0.102902 1.64828e-09 2.55386e-09 1.21874e-09 -10.2786 0.731801 -0.0259123 1.64829e-09 2.55386e-09 1.21873e-09 -2.22167 -0.733487 0.20892 -2.03217e-16 0.0 -3.88251e-19 -0.55614 5.05342 1.13555 -0.000164877 -0.375563 -0.00459562 -1.56844 -8.74546 -6.97289 2.03217e-16 0.0 3.88251e-19 10.3558 -6.46734 -2.83706 0.0442837 21.2849 -0.473986 3.61556 -15.9503 10.4087
-5.49728 84.1714 38.2774 -6.3955 -4.2708 -0.2723 5.72012 0.936025 1.87936 -1.26301 -6.06547 0.488345 1.14219 7.993 -0.411296 0.0233102 -1.13574 -0.978645 -0.0 0.0 0.0 -0.0 0.0 0.0 -2.77935e-13 -2.14651e-14 1.01827e-13 91.1406 11.0896 -20.6837 -19.1425 -11.97 36.6367 -0.735684 23.6008 3.52035 9.07406e-10 -1.47223e-09 1.88155e-09 1.60189e-09 -2.56998e-09 3.23112e-09 9.07411e-10 -1.47224e-09 1.88155e-09 7.73091 5.47488 0.417314 9.07403e-10 -1.47224e-09 1.88155e-09 2.90554 0.965183 0.102902 9.07418e-10 -1.47224e-09 1.88155e-09 10.2786 0.731801 0.0259123 9.07404e-10 -1.47224e-09 1.88155e-09 2.22167 -0.733487 -0.20892 -2.77885e-13 -2.14718e-14 1.01678e-13 -88.2998 27.3909 11.4862 16.583 -9.24039 -30.9133 0.106847 9.28196 -1.31614 1.92513e-09 3.03802e-09 1.45867e-09 3.33631e-09 5.24978e-09 2.50408e-09 1.92512e-09 3.03801e-09 1.45868e-09 -7.73091 5.47488 -0.417314 1.92513e-09 3.03802e-09 1.45868e-09 -2.90554 0.965183 -0.102902 1.92512e-09 3.03802e-09 1.45868e-09 -10.2786 0.731801 -0.0259123 1.92513e-09 3.03802e-09 1.45867e-09 -2.22167 -0.733487 0.20892 -2.03217e-16 0.0 -3.88251e-19 -0.603659 6.58239 1.39492 0.00124315 -0.00280189 0.0109515 -2.23574 -11.4858 -8.60773 2.03217e-16 0.0 3.88251e-19 12.9433 -6.56969 -3.4898 0.0885096 24.7989 -0.582274 5.15591 -19.4482 12.9617
